<?xml version="1.0" encoding="utf-8"?>
<!-- Generator: Adobe Illustrator 19.2.1, SVG Export Plug-In . SVG Version: 6.00 Build 0)  -->
<svg version="1.1" xmlns="http://www.w3.org/2000/svg" xmlns:xlink="http://www.w3.org/1999/xlink" x="0px" y="0px"
	 viewBox="0 0 32 32.4" style="enable-background:new 0 0 32 32.4;" xml:space="preserve">
<style type="text/css">
	.st0{display:none;}
	.st1{display:inline;}
	.st2{fill:#646569;}
	.st3{fill:#298DC1;}
	.st4{fill:#E28432;}
</style>
<g id="Layer_1" class="st0">
	<g class="st1">
		<path class="st2" d="M49.2,7c-1.8-0.7-2.8-1-4.6-1c-2,0-4.3,0.7-4.3,3.3c0,4.7,10.6,3.6,10.6,11.8c0,5.3-4.1,7.3-9,7.3
			c-1.7,0-3.4-0.5-5-1l0.4-3.3c1.2,0.5,3.3,1.2,5.1,1.2c2,0,4.8-1.1,4.8-4c0-5.5-10.6-4-10.6-11.7c0-4.4,3.5-6.7,7.9-6.7
			c1.6,0,3.6,0.3,5.3,0.9L49.2,7z"/>
		<path class="st2" d="M61.7,9.5c5.5,0,9.1,4,9.1,9.4c0,5.2-3.7,9.4-9.1,9.4c-5.4,0-9.2-4.3-9.2-9.4C52.5,13.4,56.2,9.5,61.7,9.5z
			 M61.7,25.7c3.9,0,5.6-3.5,5.6-6.7c0-3.4-2.1-6.7-5.6-6.7c-3.6,0-5.6,3.3-5.6,6.7C56,22.1,57.8,25.7,61.7,25.7z"/>
		<path class="st2" d="M85.1,12.9c-1.3-0.5-2.5-0.8-3.6-0.8c-3.7,0-5.8,3.3-5.8,6.7c0,3.2,1.7,6.7,6,6.7c1.1,0,2.5-0.4,3.6-1l0.2,3
			c-1.4,0.6-3,0.7-4.2,0.7c-5.4,0-9.2-4.3-9.2-9.4c0-5.5,3.7-9.4,9.2-9.4c1.3,0,3.1,0.3,4,0.7L85.1,12.9z"/>
		<path class="st2" d="M87.8,9.9h3.1v2.8H91c0.9-1.9,2.8-3.2,4.7-3.2c1,0,1.5,0.1,2.2,0.2v3c-0.6-0.2-1.3-0.3-1.8-0.3
			c-3,0-4.9,2.8-4.9,7.3v8.2h-3.3V9.9z"/>
		<path class="st2" d="M100.8,11.2c1.7-1,3.6-1.7,5.9-1.7c5.2,0,7.2,2.5,7.2,7.4v7.5c0,2,0.1,3,0.1,3.5H111v-2.3h-0.1
			c-0.8,1.1-2.5,2.8-5.6,2.8c-3.9,0-6.6-1.7-6.6-5.6c0-4.5,4.9-5.9,8.4-5.9c1.3,0,2.2,0,3.5,0.1c0-3.1-1.1-4.7-4.4-4.7
			c-1.9,0-3.9,0.7-5.2,1.8L100.8,11.2z M110.6,19.3c-0.7,0-1.4-0.1-2.1-0.1c-1.8,0-6.2,0.3-6.2,3.5c0,1.9,1.8,2.9,3.4,2.9
			c3.3,0,5-2,5-4.7V19.3z"/>
		<path class="st2" d="M127.6,12.6h-4.8v9.9c0,2.1,1.3,3.2,2.8,3.2c1,0,1.8-0.3,2.3-0.6v2.8c-0.7,0.2-1.8,0.5-2.8,0.5
			c-3.4,0-5.5-1.6-5.5-5.2V12.6h-4.1V9.9h4.1V5.7l3.3-1.1v5.2h4.8V12.6z"/>
		<path class="st2" d="M131,11.2c1.7-1,3.6-1.7,5.9-1.7c5.2,0,7.2,2.5,7.2,7.4v7.5c0,2,0.1,3,0.1,3.5h-3.1v-2.3h-0.1
			c-0.8,1.1-2.5,2.8-5.6,2.8c-3.9,0-6.6-1.7-6.6-5.6c0-4.5,4.9-5.9,8.4-5.9c1.3,0,2.2,0,3.5,0.1c0-3.1-1.1-4.7-4.4-4.7
			c-1.9,0-3.9,0.7-5.2,1.8L131,11.2z M140.8,19.3c-0.7,0-1.4-0.1-2.1-0.1c-1.8,0-6.2,0.3-6.2,3.5c0,1.9,1.8,2.9,3.4,2.9
			c3.3,0,5-2,5-4.7V19.3z"/>
	</g>
	<text transform="matrix(1 0 0 1 -44.8955 45.5859)" class="st1" style="font-family:'OpenSans-Light'; font-size:2.9622px;"> </text>
</g>
<g id="Layer_2">
	<path class="st3" d="M30.1,10l-0.3,0.2L28,10.9c0.8,1.7,1.2,3.5,1.2,5.5c0,7.2-5.9,13.1-13.1,13.1c-7.2,0-13.1-5.9-13.1-13.1
		c0-7.2,5.9-13.1,13.1-13.1c1.5,0,3,0.3,4.3,0.7l0.6-1.8l0.1-0.4C19.6,1.4,17.9,1,16.1,1C7.7,1,0.8,7.9,0.8,16.4
		c0,8.5,6.9,15.4,15.4,15.4c8.5,0,15.4-6.9,15.4-15.4C31.5,14.1,31,11.9,30.1,10z"/>
	<path class="st3" d="M19.7,6.3c-1.1-0.4-2.3-0.6-3.5-0.6c-6,0-10.9,4.8-10.9,10.7c0,5.9,4.9,10.7,10.9,10.7c6,0,10.9-4.8,10.9-10.7
		c0-1.6-0.4-3.1-1-4.5l-0.3,0.2l-1.8,0.8c0.5,1.1,0.8,2.2,0.8,3.5c0,4.6-3.8,8.4-8.5,8.4c-4.7,0-8.5-3.8-8.5-8.4
		c0-4.6,3.8-8.4,8.5-8.4c1,0,1.9,0.2,2.8,0.5l0.6-1.8L19.7,6.3z"/>
	<path class="st3" d="M16.1,20.4c-2.3,0-4.1-1.8-4.1-4.1c0-2.3,1.8-4.1,4.1-4.1c0.5,0,1,0.1,1.4,0.3l0.7-2.1
		c-0.7-0.2-1.4-0.4-2.2-0.4c-3.5,0-6.4,2.8-6.4,6.4c0,3.5,2.9,6.4,6.4,6.4c3.5,0,6.4-2.8,6.4-6.4h0c0-0.9-0.2-1.7-0.5-2.4l-2,1
		c0.2,0.5,0.3,0.9,0.3,1.5C20.2,18.5,18.4,20.3,16.1,20.4z"/>
	<path class="st4" d="M19.3,13l11.5-5.5c-1.7-2.9-4.3-5.2-7.3-6.6L19.3,13z"/>
</g>
</svg>
